<svg width="50" height="50" viewBox="0 0 50 50" fill="none" xmlns="http://www.w3.org/2000/svg">
<path d="M19.7763 11.6955C17.492 13.2562 13.5526 15.9476 14.8283 20.1001C15.8584 23.4531 20.0261 26.9716 22.2483 28.8476C22.7181 29.2442 23.1009 29.5674 23.3488 29.8001C24.3767 30.7652 25.4392 31.9923 25.6596 33.5066C31.96 25.5709 29.7006 20.2413 23.1836 17.7668C25.5417 18.0749 30.2576 19.7629 31.0581 24.061C31.1755 23.1418 31.2157 22.1511 31.2622 21.0027C31.2907 20.3006 31.3215 19.5397 31.3739 18.7001C31.6116 14.8868 36.6689 13.7334 39.1678 13.6334C32.431 15.0112 32.6215 17.011 32.9492 20.4527C33.1131 22.1738 33.3114 24.2554 32.6949 26.8001C31.5432 31.5536 29.7264 34.4949 28.5477 35.9538C28.4334 36.1478 28.3184 36.3408 28.2034 36.5334C28.0067 36.8631 27.8083 37.1786 27.6117 37.4911C27.0128 38.4431 26.4306 39.3685 25.9633 40.5912C27.5801 39.4594 29.7638 38.5642 32.7013 37.36C32.8298 37.3073 32.9597 37.254 33.0912 37.2001C33.779 36.9179 34.3895 36.6186 34.9301 36.3115C38.7079 32.8291 36.4583 27.56 34.7424 25.2334C37.3101 27.3348 38.5006 30.5973 38.518 32.8674C38.6179 32.647 38.678 32.4549 38.7054 32.3001C39.3131 24.0068 47.4791 23.1334 51.4861 23.7334C43.0317 23.4334 40.2906 27.3001 39.8283 32.3001C39.7226 34.8868 39.2118 35.9557 38.9696 36.1668C42.827 34.3534 47.6002 35.6334 49.5046 36.5001C43.6114 34.7338 37.8781 37.2293 33.2563 39.5668C32.7707 39.8124 32.2954 40.0317 31.8307 40.2462C31.0425 40.61 30.2846 40.9598 29.5575 41.4001C29.4351 41.4663 29.3141 41.5316 29.1946 41.596C27.0877 42.7322 25.4389 43.6213 25.0253 45.1705C24.5882 46.8075 24.4716 47.6001 25 50.0001H16.5456C16.5318 49.1492 16.7858 47.6393 17.5423 45.6588C17.6755 44.9935 17.7092 44.0292 17.3623 42.9755C15.0204 37.6397 9.31617 29.5101 -0.495361 32.3001C2.8732 30.1668 14.6764 30.1401 19.2206 41.6335C19.2505 41.7271 19.2833 41.8287 19.3185 41.9371C19.7083 41.2509 20.3168 40.5211 20.9431 39.77C21.8562 38.6749 22.8071 37.5344 23.1729 36.418C23.7897 34.5359 22.7418 33.1406 21.1691 31.5668C20.8745 31.272 20.536 30.9455 20.1682 30.5907C19.1717 29.6294 17.9603 28.4608 16.8258 27.1551C12.3058 25.5937 6.16393 22.3978 8.25629 18.6668C7.96645 19.9886 8.9516 23.0369 15.0763 24.8938C12.2634 20.6983 11.4774 15.66 20.0132 11.5334C19.9367 11.5859 19.8578 11.6398 19.7769 11.6952L19.7763 11.6955Z" fill="white"/>
<path fill-rule="evenodd" clip-rule="evenodd" d="M32.0813 4.6478C36.4427 4.62378 39.9647 2.67925 39.9647 0.284023C39.9647 -2.12615 36.3986 -4.07998 31.9996 -4.07998C27.6006 -4.07998 24.0345 -2.12615 24.0345 0.284023C24.0345 1.75157 25.3566 3.04993 27.3839 3.84103C27.1978 4.95749 26.4091 6.19196 25.9814 6.73299C27.565 6.53411 30.3878 5.40092 32.0813 4.6478Z" fill="white"/>
<path d="M55.9669 47.6859C54.1128 48.2586 51.7625 45.9281 50.7174 42.4806C49.6722 39.0332 50.3279 35.7743 52.1819 35.2017C54.036 34.629 56.3863 36.9595 57.4314 40.4069C58.4766 43.8544 57.8209 47.1133 55.9669 47.6859Z" fill="white"/>
<path fill-rule="evenodd" clip-rule="evenodd" d="M29.7524 14.8952C30.845 14.4584 31.5654 13.748 31.6165 12.9073C31.7086 11.3939 29.5972 10.0316 26.9005 9.86445C24.2038 9.69731 21.9431 10.7886 21.851 12.302C21.7589 13.8154 23.8704 15.1777 26.567 15.3448C26.8176 15.3604 27.0643 15.365 27.306 15.3595C28.199 15.8409 29.5342 16.496 30.3329 16.666C30.1164 16.3289 29.7204 15.534 29.7524 14.8952Z" fill="white"/>
<path fill-rule="evenodd" clip-rule="evenodd" d="M8.6684 15.4806C9.45188 15.1236 9.96746 14.5829 10.04 13.9321C10.1918 12.5714 8.34918 11.245 5.92447 10.9695C3.49975 10.694 1.41111 11.5738 1.25935 12.9345C1.1076 14.2952 2.9502 15.6217 5.37492 15.8971C5.76198 15.9411 6.14048 15.9557 6.5039 15.9435C7.37046 16.2359 8.64196 16.6109 9.37248 16.6411C9.17528 16.424 8.82774 15.956 8.6684 15.4806Z" fill="white"/>
<path fill-rule="evenodd" clip-rule="evenodd" d="M6.66779 27.9377C7.33253 27.7982 7.822 27.4707 7.98865 26.9815C8.33713 25.9588 7.1422 24.6168 5.31971 23.9842C3.49721 23.3516 1.73729 23.6679 1.38881 24.6907C1.04033 25.7134 2.23526 27.0554 4.05775 27.688C4.34892 27.7891 4.6385 27.8659 4.92097 27.9195C5.5393 28.2951 6.4553 28.8043 7.01317 28.954C6.8981 28.7525 6.70982 28.3317 6.66779 27.9377Z" fill="white"/>
<path fill-rule="evenodd" clip-rule="evenodd" d="M23.1292 24.6418C23.8081 24.6332 24.3506 24.4061 24.6068 23.9582C25.1426 23.0215 24.2239 21.4737 22.5549 20.5011C20.8858 19.5285 19.0985 19.4993 18.5627 20.436C18.0269 21.3727 18.9456 22.9204 20.6146 23.8931C20.881 24.0483 21.1505 24.1795 21.4173 24.2866C21.9531 24.7746 22.7562 25.4516 23.2757 25.7064C23.2009 25.4863 23.0957 25.0367 23.1292 24.6418Z" fill="white"/>
<path fill-rule="evenodd" clip-rule="evenodd" d="M3.86161 36.9873C4.55843 36.0111 4.78635 35.0065 4.36726 34.2739C3.63032 32.9855 1.1719 33.0256 -1.12379 34.3634C-3.41948 35.7012 -4.68309 37.8301 -3.94616 39.1184C-3.20922 40.4067 -0.750794 40.3666 1.54489 39.0289C1.93018 38.8043 2.2864 38.5575 2.60896 38.2962C3.47156 38.1266 4.4383 37.8906 4.99152 37.6229C4.72463 37.5273 4.24162 37.3013 3.86161 36.9873Z" fill="white"/>
<path fill-rule="evenodd" clip-rule="evenodd" d="M15.3475 9.97999C17.0844 10.069 18.463 9.56246 18.9241 8.5033C19.6814 6.76365 17.6768 4.19207 14.4467 2.75951C11.2165 1.32696 7.98404 1.57591 7.22671 3.31556C6.46939 5.0552 8.474 7.62678 11.7041 9.05934C11.9229 9.15633 12.1416 9.24562 12.3595 9.32726C13.2037 10.2816 14.4739 11.6112 15.3306 12.154C15.2284 11.6978 15.1134 10.7092 15.3475 9.97999Z" fill="white"/>
<path fill-rule="evenodd" clip-rule="evenodd" d="M44.3109 31.0368C45.0724 32.7372 46.5666 33.7155 47.6481 33.222C48.7296 32.7285 48.989 30.95 48.2275 29.2497C47.4659 27.5494 45.9718 26.571 44.8902 27.0645C44.3646 27.3044 44.0331 27.8477 43.9187 28.5381C43.4991 28.4584 43.0895 28.1816 42.7728 27.7914C42.9559 28.3714 43.5187 29.3136 43.9736 30.0125C44.0458 30.3497 44.1577 30.6948 44.3109 31.0368Z" fill="white"/>
<path fill-rule="evenodd" clip-rule="evenodd" d="M41.6672 9.98023C44.1067 10.3179 46.2242 9.56117 46.397 8.28998C46.5697 7.01879 44.7322 5.71453 42.2928 5.37684C39.8533 5.03915 37.7358 5.7959 37.563 7.06709C37.4737 7.72478 37.9224 8.39132 38.7142 8.92827C38.3512 9.28751 37.7743 9.60397 37.4197 9.79849C37.3363 9.84423 37.2652 9.88322 37.2121 9.91445C38.1137 10.1432 40.2186 10.1869 41.4759 9.95158C41.5393 9.96178 41.603 9.97134 41.6672 9.98023Z" fill="white"/>
<path fill-rule="evenodd" clip-rule="evenodd" d="M38.9932 21.8347C41.0487 22.9235 43.1666 22.9379 43.7235 21.8668C44.2805 20.7956 43.0657 19.0446 41.0101 17.9557C38.9546 16.8669 36.8368 16.8525 36.2798 17.9237C35.9917 18.4779 36.1778 19.2141 36.7093 19.9464C36.2733 20.1475 35.6613 20.2414 35.2851 20.2991C35.1966 20.3126 35.1212 20.3242 35.0642 20.3347C35.7909 20.8293 37.6435 21.5493 38.833 21.7475C38.8858 21.777 38.9392 21.8061 38.9932 21.8347Z" fill="white"/>
<path fill-rule="evenodd" clip-rule="evenodd" d="M50.1101 18.8002C47.0295 18.7027 44.5757 17.2265 44.6292 15.5029C44.6827 13.7793 47.2233 12.4611 50.3038 12.5585C53.3844 12.6559 55.8382 14.1322 55.7847 15.8558C55.757 16.7476 55.0635 17.5308 53.9739 18.0657C54.3464 18.623 54.9919 19.1715 55.3886 19.5086C55.4819 19.5878 55.5614 19.6554 55.6204 19.7087C54.46 19.8105 51.8532 19.3979 50.3514 18.8049C50.2713 18.8043 50.1909 18.8027 50.1101 18.8002Z" fill="white"/>
</svg>
